PathFileType	4	(X/Y/Z)	E:\Studenten\Marcel_BSc\Simon_27_12_2024\27-12-2024\static_00.trc
DataRate	CameraRate	NumFrames	NumMarkers	Units	OrigDataRate	OrigDataStartFrame	OrigNumFrames
200.0	200.0	4	63	mm	200.0	165	175	
Frame#	Time	FHD			LBHD			RBHD			RBAR			LBAR			RASI			RSACR			LSACR			LASI			USACR			C7			CLAV			T10			RSHO			LSHO			LTHI1			LTHI3			LTHI2			LTHI4			LLFC			LMFC			LTIB1			LTIB2			LTIB3			LTIB4			LMMAL			LLMAL			LHEE			LMT1			LMT5			LMT3			RTHI1			RTHI3			RTHI2			RTHI4			RLFC			RMFC			RTIB1			RTIB3			RTIB2			RTIB4			RLMAL			RMMAL			RHEE			RMT5			RMT1			RMT3			LMEP			LLEP			LDUPA			LMUPA			LUUPA			LUL			LRAD			LRFIN			RUL			RRAD			RUFIN			RMEP			RDUPA			RUUPA			RLEP			RMUPA			
		X1	Y1	Z1	X2	Y2	Z2	X3	Y3	Z3	X4	Y4	Z4	X5	Y5	Z5	X6	Y6	Z6	X7	Y7	Z7	X8	Y8	Z8	X9	Y9	Z9	X10	Y10	Z10	X11	Y11	Z11	X12	Y12	Z12	X13	Y13	Z13	X14	Y14	Z14	X15	Y15	Z15	X16	Y16	Z16	X17	Y17	Z17	X18	Y18	Z18	X19	Y19	Z19	X20	Y20	Z20	X21	Y21	Z21	X22	Y22	Z22	X23	Y23	Z23	X24	Y24	Z24	X25	Y25	Z25	X26	Y26	Z26	X27	Y27	Z27	X28	Y28	Z28	X29	Y29	Z29	X30	Y30	Z30	X31	Y31	Z31	X32	Y32	Z32	X33	Y33	Z33	X34	Y34	Z34	X35	Y35	Z35	X36	Y36	Z36	X37	Y37	Z37	X38	Y38	Z38	X39	Y39	Z39	X40	Y40	Z40	X41	Y41	Z41	X42	Y42	Z42	X43	Y43	Z43	X44	Y44	Z44	X45	Y45	Z45	X46	Y46	Z46	X47	Y47	Z47	X48	Y48	Z48	X49	Y49	Z49	X50	Y50	Z50	X51	Y51	Z51	X52	Y52	Z52	X53	Y53	Z53	X54	Y54	Z54	X55	Y55	Z55	X56	Y56	Z56	X57	Y57	Z57	X58	Y58	Z58	X59	Y59	Z59	X60	Y60	Z60	X61	Y61	Z61	X62	Y62	Z62	X63	Y63	Z63	
165	0.82	106.04626	1723.0164	-931.93304	276.40256	1699.4993	-852.71436	231.7849	1725.9952	-1005.5866	2013.762	28.049862	-2007.8423	1903.423	23.709934	212.59795	158.81989	969.93817	-1062.5527	348.58157	977.02087	-958.77991	346.24176	972.96472	-916.52411	154.32492	974.62762	-813.57715	339.20865	985.66016	-933.65143	319.26724	1481.905	-925.00311	163.97878	1431.5933	-925.42377	333.41345	1169.9302	-935.25818	299.47406	1467.7233	-1086.6843	286.1821	1461.6272	-764.3186	223.04622	813.56042	-732.65601	190.34366	790.95392	-732.62805	237.77164	774.54504	-724.27954	192.23543	726.50897	-724.32678	261.61667	499.36407	-743.10596	236.74936	469.67224	-847.42847	320.24347	416.40683	-730.77655	296.47858	377.95258	-714.52924	343.40964	366.4017	-728.11566	309.44308	313.44116	-709.74432	251.60423	97.416733	-823.02081	282.07574	76.624435	-736.56293	331.22394	35.397404	-786.1311	111.35848	41.0896	-775.02478	155.21359	29.502451	-703.83679	128.87045	33.668316	-724.5459	209.54066	817.36188	-1143.4817	162.9697	781.7428	-1130.4458	210.10675	784.86304	-1148.9933	189.20561	721.80859	-1146.1517	256.62405	500.6373	-1124.6608	243.25391	482.91208	-1003.2	307.16141	432.87003	-1137.0686	340.18314	382.67612	-1142.8599	290.03015	385.4509	-1154.5227	312.64563	323.61002	-1155.6606	287.9408	82.804375	-1132.4067	248.71454	100.36234	-1049.9305	328.4342	33.173973	-1073.8369	172.50954	28.90177	-1181.8694	119.27608	45.886871	-1119.2224	130.78734	35.042763	-1159.8806	214.96739	1295.6903	-503.564	272.27954	1394.8597	-489.93289	305.38931	1388.9045	-564.33563	324.35236	1381.7595	-623.15997	297.96265	1422.3077	-635.8197	226.1288	1363.3295	-233.31291	167.68504	1340.6675	-248.29485	156.86153	1350.8472	-154.00255	249.2475	1392.8939	-1608.3685	198.94254	1397.2195	-1593.3561	183.8951	1396.7375	-1698.33	234.91068	1297.4503	-1357.7673	287.02216	1430.9438	-1284.9038	315.78452	1425.1698	-1210.7278	285.59338	1400.7332	-1364.0858	322.25128	1399.6506	-1267.2927
166	0.825	106.0949	1723.0443	-931.94611	276.45264	1699.504	-852.71289	231.85698	1726.0028	-1005.5695	2013.7532	28.060524	-2007.8828	1903.3174	23.816494	212.77196	158.83182	969.92963	-1062.548	348.62177	977.01947	-958.75861	346.2518	972.96588	-916.51855	154.35307	974.63062	-813.55988	339.22714	985.65295	-933.64923	319.28546	1481.9083	-924.99316	163.98679	1431.6057	-925.41425	333.42282	1169.9292	-935.26221	299.49057	1467.7306	-1086.6796	286.16971	1461.6235	-764.32397	223.05469	813.5705	-732.6438	190.35365	790.94568	-732.63507	237.76059	774.57495	-724.2583	192.22629	726.51447	-724.31207	261.62067	499.36118	-743.10187	236.7507	469.66495	-847.4209	320.24155	416.40765	-730.77771	296.47186	377.94547	-714.53143	343.39435	366.37961	-728.13684	309.43515	313.43536	-709.72314	251.49008	97.298386	-822.99963	282.07785	76.625633	-736.56396	331.1153	35.29253	-786.14362	111.36565	41.085552	-775.03436	155.20598	29.499006	-703.84558	128.86847	33.664497	-724.54736	209.55206	817.36438	-1143.4761	162.94537	781.73224	-1130.4075	210.14001	784.85748	-1148.9934	189.22003	721.79718	-1146.1484	256.63068	500.63699	-1124.6649	243.25702	482.90643	-1003.2062	307.16153	432.86853	-1137.0719	340.15845	382.69708	-1142.8802	290.02512	385.45929	-1154.5121	312.63901	323.6156	-1155.6708	287.93307	82.804901	-1132.4197	248.72617	100.36518	-1049.9397	328.44061	33.166786	-1073.8406	172.51079	28.891724	-1181.8689	119.28529	45.894146	-1119.2354	130.80319	35.036705	-1159.8864	215.42058	1294.6643	-502.42538	272.28677	1394.858	-489.92563	305.3931	1388.8909	-564.33441	324.36169	1381.7628	-623.15448	297.96283	1422.3063	-635.8139	226.13858	1363.3176	-233.31348	167.69955	1340.6398	-248.2942	156.87775	1350.7988	-154.00513	249.26649	1392.9125	-1608.3671	198.96019	1397.2461	-1593.3604	183.90242	1396.7621	-1698.3303	234.9124	1297.4685	-1357.7714	287.03082	1430.9698	-1284.8972	315.79507	1425.1846	-1210.7195	285.27362	1400.5811	-1363.7395	322.26416	1399.6713	-1267.2936
167	0.83	106.1494	1723.0719	-931.96228	276.49689	1699.5026	-852.69354	231.92888	1726.0087	-1005.5657	2013.7817	28.032322	-2007.8655	1903.4609	23.682013	212.57155	158.85249	969.92493	-1062.5503	348.6362	977.00781	-958.75623	346.23819	972.96576	-916.50208	154.37935	974.62677	-813.55157	339.2485	985.65283	-933.63416	319.31387	1481.9219	-924.99219	163.99078	1431.6223	-925.41608	333.4313	1169.9406	-935.27551	299.49985	1467.7368	-1086.6792	286.16177	1461.6191	-764.31805	223.06068	813.57599	-732.63745	190.36073	790.94073	-732.62207	237.78021	774.56573	-724.25964	192.22595	726.50677	-724.30243	261.62271	499.3645	-743.1004	236.7536	469.66974	-847.41357	320.24289	416.41901	-730.76685	296.46597	377.94086	-714.54041	343.38809	366.37662	-728.15125	309.42444	313.44653	-709.74011	251.61139	97.185181	-822.73663	282.07013	76.621819	-736.5592	331.22903	35.393993	-786.14301	111.36517	41.085579	-775.02655	155.21362	29.509745	-703.83936	128.87415	33.666416	-724.55048	209.57007	817.36969	-1143.4725	163.00362	781.74823	-1130.4435	210.14716	784.88428	-1148.9939	189.22662	721.80298	-1146.1416	256.63245	500.63467	-1124.6709	243.25208	482.90408	-1003.2164	307.16492	432.86703	-1137.0713	340.16611	382.66992	-1142.8564	290.04202	385.44791	-1154.5153	312.6333	323.59454	-1155.6708	287.93799	82.802773	-1132.4348	248.82452	100.35666	-1050.0223	328.44833	33.168018	-1073.8374	172.50877	28.890568	-1181.8934	119.28016	45.901928	-1119.2462	130.79709	35.068954	-1159.9131	215.46371	1294.662	-502.42508	272.30594	1394.8613	-489.92215	305.40515	1388.8849	-564.33441	324.36395	1381.7559	-623.16101	297.96527	1422.3052	-635.80969	226.13913	1363.3148	-233.30263	167.71275	1340.6107	-248.29443	157.05733	1350.6616	-154.28281	249.27594	1392.9495	-1608.3777	198.96921	1397.2798	-1593.3597	183.92456	1396.7843	-1698.3279	234.91801	1297.5095	-1357.7631	287.03152	1430.9943	-1284.8945	315.80261	1425.215	-1210.7184	285.28448	1400.6061	-1363.733	322.26566	1399.6968	-1267.2955
168	0.835	106.20876	1723.0929	-931.97198	276.54117	1699.5062	-852.6756	231.9953	1726.0157	-1005.5553	2013.7496	28.07436	-2007.875	1903.368	23.750446	212.65691	158.86449	969.92047	-1062.5415	348.64774	976.99854	-958.7608	346.25653	972.96448	-916.49982	154.39711	974.62897	-813.55005	339.27219	985.64728	-933.63116	319.36533	1481.9325	-924.98505	164.0011	1431.6333	-925.41608	333.44391	1169.9442	-935.27612	299.51797	1467.7389	-1086.6732	286.15192	1461.6156	-764.31244	223.06927	813.57123	-732.63586	190.35788	790.9566	-732.62885	237.76427	774.58832	-724.23077	192.23438	726.52087	-724.29956	261.61893	499.36508	-743.08917	236.74925	469.67371	-847.4162	320.2395	416.4101	-730.75598	296.47128	377.95053	-714.50763	343.52417	366.37137	-728.05078	309.42239	313.43982	-709.71552	251.5815	97.404076	-823.00854	282.07452	76.627441	-736.55438	331.117	35.289783	-786.14313	111.36632	41.088852	-775.02002	155.21165	29.50794	-703.84973	128.8773	33.666611	-724.55615	209.58427	817.36877	-1143.4677	163.02946	781.745	-1130.4506	210.14201	784.90515	-1149.0164	189.24123	721.8075	-1146.1359	256.63348	500.63867	-1124.6688	243.24809	482.90393	-1003.2225	307.16495	432.87106	-1137.0804	340.18777	382.66864	-1142.8838	290.03171	385.45386	-1154.5061	312.64474	323.60574	-1155.6698	287.93649	82.805557	-1132.4504	248.70782	100.35853	-1049.9705	328.4487	33.169571	-1073.8484	172.52061	28.896994	-1181.8926	119.28577	45.917782	-1119.2498	130.79518	35.069622	-1159.9197	215.47282	1294.7131	-502.40005	272.30679	1394.8569	-489.92032	305.42444	1388.8767	-564.34277	324.36313	1381.7539	-623.15613	297.97549	1422.2976	-635.79883	226.14676	1363.3109	-233.302	167.7205	1340.5876	-248.29414	156.9749	1350.7135	-153.85815	249.28502	1392.9855	-1608.369	198.97977	1397.3093	-1593.3601	183.92812	1396.8185	-1698.3256	234.91988	1297.5388	-1357.7704	287.01181	1431.0211	-1284.8916	315.79022	1425.1532	-1210.4994	285.29065	1400.6298	-1363.7211	322.26163	1399.7365	-1267.2938
